<svg xmlns:xlink="http://www.w3.org/1999/xlink" xmlns="http://www.w3.org/2000/svg" className="css-ze2te4 css-qd6ojx" viewBox="0 0 83.33333333333333 83.33333333333333" width="110"  height="110" ><g transform="translate(-2.610441767068273, -2.6004016064257027) scale(0.0050200803212851405)" className="css-1e98oqk" fill="#FFFFFF"><defs xmlns="http://www.w3.org/2000/svg"></defs><g xmlns="http://www.w3.org/2000/svg" fill="#FFFFFF"><path className="fil0" d="M8116 8841c-875,-148 -1659,-567 -2260,-1169 -601,-601 -1021,-1385 -1169,-2260 -932,6 -1776,386 -2387,998 -617,617 -998,1468 -998,2409 0,941 381,1793 998,2409 617,617 1468,998 2409,998 941,0 1793,-381 2409,-998 612,-612 992,-1455 998,-2387zm3461 -178l1460 1985 1437 -1985 -1437 -1966 -1460 1966zm-7010 568c10,593 -270,1056 -790,1243 -354,127 -455,58 -468,189l0 36 2660 0c-8,-142 -60,-109 -207,-142 -89,-20 -180,-45 -261,-74 -518,-186 -843,-653 -813,-1267 77,49 475,696 1082,408 382,-181 498,-688 253,-1092 -309,-508 -979,-809 -1278,-1505 -41,-96 -62,-214 -110,-290 -131,135 12,329 -615,977 -213,220 -598,515 -779,812 -427,698 230,1419 887,1084 243,-124 317,-281 395,-346 40,-33 -17,3 45,-31zm4141 -2369c41,-44 100,-262 136,-344 56,-128 98,-214 161,-324 376,-649 912,-1178 1207,-1741 742,-1416 -1164,-1973 -1481,-685 -69,-24 -14,42 -97,-145 -494,-1120 -2110,-487 -1444,804 254,493 1062,1330 1383,2073 30,69 111,329 136,362zm-583 5518c-1082,-290 -1541,579 -1093,1259 321,488 997,504 1428,107 247,-227 224,-310 323,-404 43,602 -256,1115 -787,1315 -180,68 -297,76 -418,112 -93,27 -71,52 -83,154l2688 2c-29,-192 -99,-123 -508,-268 -182,-65 -306,-152 -430,-282 -219,-228 -385,-616 -360,-1061 215,318 326,526 733,666 1344,462 1627,-2002 -65,-1603 68,-194 306,-520 55,-936 -349,-581 -1201,-575 -1540,1 -251,425 -16,727 57,938zm673 -4265c148,-875 567,-1659 1169,-2260 601,-601 1385,-1021 2260,-1169 -6,-932 -386,-1776 -998,-2387 -617,-617 -1468,-998 -2409,-998 -941,0 -1793,381 -2409,998 -617,617 -998,1468 -998,2409 0,941 381,1793 998,2409 612,612 1455,992 2387,998zm4212 -3487c1126,21 2143,486 2883,1227 758,758 1227,1806 1227,2963 0,1157 -469,2205 -1227,2963 -741,741 -1758,1206 -2883,1227 -21,1126 -486,2143 -1227,2883 -758,758 -1806,1227 -2963,1227 -1157,0 -2205,-469 -2963,-1227 -741,-741 -1206,-1758 -1227,-2883 -1126,-21 -2143,-486 -2883,-1227 -758,-758 -1227,-1806 -1227,-2963 0,-1157 469,-2205 1227,-2963 741,-741 1758,-1206 2883,-1227 21,-1126 486,-2143 1227,-2883 758,-758 1806,-1227 2963,-1227 1157,0 2205,469 2963,1227 741,741 1206,1758 1227,2883zm-58 7597c932,-6 1776,-386 2387,-998 617,-617 998,-1468 998,-2409 0,-941 -381,-1793 -998,-2409 -617,-617 -1468,-998 -2409,-998 -941,0 -1793,381 -2409,998 -612,612 -992,1455 -998,2387 875,148 1659,567 2260,1169 601,601 1021,1385 1169,2260zm-7539 725c6,932 386,1776 998,2387 617,617 1468,998 2409,998 941,0 1793,-381 2409,-998 617,-617 998,-1468 998,-2409 0,-941 -381,-1793 -998,-2409 -612,-612 -1455,-992 -2387,-998 -148,875 -567,1659 -1169,2260 -601,601 -1385,1021 -2260,1169z" style="fill: {{COLOR}}; fill-rule: nonzero;" fill="#FFFFFF"></path></g></g></svg>