<svg xmlns:xlink="http://www.w3.org/1999/xlink" xmlns="http://www.w3.org/2000/svg" width="395.99999999999994" height="124.84729064039408" viewBox="0 0 406 128" className="looka-1j8o68f"><defs id="SvgjsDefs1066"></defs><g id="SvgjsG1067" featurekey="LwVBM5-0" transform="matrix(0.0050200803212851405,0,0,0.0050200803212851405,-2.610441767068273,20.399598393574298)" fill="#FFFFFF"><defs xmlns="http://www.w3.org/2000/svg"></defs><g xmlns="http://www.w3.org/2000/svg" fill="#FFFFFF"><path className="fil0" d="M8116 8841c-875,-148 -1659,-567 -2260,-1169 -601,-601 -1021,-1385 -1169,-2260 -932,6 -1776,386 -2387,998 -617,617 -998,1468 -998,2409 0,941 381,1793 998,2409 617,617 1468,998 2409,998 941,0 1793,-381 2409,-998 612,-612 992,-1455 998,-2387zm3461 -178l1460 1985 1437 -1985 -1437 -1966 -1460 1966zm-7010 568c10,593 -270,1056 -790,1243 -354,127 -455,58 -468,189l0 36 2660 0c-8,-142 -60,-109 -207,-142 -89,-20 -180,-45 -261,-74 -518,-186 -843,-653 -813,-1267 77,49 475,696 1082,408 382,-181 498,-688 253,-1092 -309,-508 -979,-809 -1278,-1505 -41,-96 -62,-214 -110,-290 -131,135 12,329 -615,977 -213,220 -598,515 -779,812 -427,698 230,1419 887,1084 243,-124 317,-281 395,-346 40,-33 -17,3 45,-31zm4141 -2369c41,-44 100,-262 136,-344 56,-128 98,-214 161,-324 376,-649 912,-1178 1207,-1741 742,-1416 -1164,-1973 -1481,-685 -69,-24 -14,42 -97,-145 -494,-1120 -2110,-487 -1444,804 254,493 1062,1330 1383,2073 30,69 111,329 136,362zm-583 5518c-1082,-290 -1541,579 -1093,1259 321,488 997,504 1428,107 247,-227 224,-310 323,-404 43,602 -256,1115 -787,1315 -180,68 -297,76 -418,112 -93,27 -71,52 -83,154l2688 2c-29,-192 -99,-123 -508,-268 -182,-65 -306,-152 -430,-282 -219,-228 -385,-616 -360,-1061 215,318 326,526 733,666 1344,462 1627,-2002 -65,-1603 68,-194 306,-520 55,-936 -349,-581 -1201,-575 -1540,1 -251,425 -16,727 57,938zm673 -4265c148,-875 567,-1659 1169,-2260 601,-601 1385,-1021 2260,-1169 -6,-932 -386,-1776 -998,-2387 -617,-617 -1468,-998 -2409,-998 -941,0 -1793,381 -2409,998 -617,617 -998,1468 -998,2409 0,941 381,1793 998,2409 612,612 1455,992 2387,998zm4212 -3487c1126,21 2143,486 2883,1227 758,758 1227,1806 1227,2963 0,1157 -469,2205 -1227,2963 -741,741 -1758,1206 -2883,1227 -21,1126 -486,2143 -1227,2883 -758,758 -1806,1227 -2963,1227 -1157,0 -2205,-469 -2963,-1227 -741,-741 -1206,-1758 -1227,-2883 -1126,-21 -2143,-486 -2883,-1227 -758,-758 -1227,-1806 -1227,-2963 0,-1157 469,-2205 1227,-2963 741,-741 1758,-1206 2883,-1227 21,-1126 486,-2143 1227,-2883 758,-758 1806,-1227 2963,-1227 1157,0 2205,469 2963,1227 741,741 1206,1758 1227,2883zm-58 7597c932,-6 1776,-386 2387,-998 617,-617 998,-1468 998,-2409 0,-941 -381,-1793 -998,-2409 -617,-617 -1468,-998 -2409,-998 -941,0 -1793,381 -2409,998 -612,612 -992,1455 -998,2387 875,148 1659,567 2260,1169 601,601 1021,1385 1169,2260zm-7539 725c6,932 386,1776 998,2387 617,617 1468,998 2409,998 941,0 1793,-381 2409,-998 617,-617 998,-1468 998,-2409 0,-941 -381,-1793 -998,-2409 -612,-612 -1455,-992 -2387,-998 -148,875 -567,1659 -1169,2260 -601,601 -1385,1021 -2260,1169z" style="fill-rule: nonzero;" fill="#FFFFFF"></path></g></g><g id="SvgjsG1068" featurekey="textGroupContainer" transform="matrix(1,0,0,1,405,0)" fill="#FFFFFF"><rect xmlns="http://www.w3.org/2000/svg" y="0" height="1" width="1" opacity="0" fill="#FFFFFF"></rect><rect xmlns="http://www.w3.org/2000/svg" y="0" x="-302" width="3" height="128" fill="#FFFFFF"></rect></g><g id="SvgjsG1069" featurekey="YhTCwJ-0" transform="matrix(2.2675737255672583,0,0,2.2675737255672583,117.00906972399518,20.93423995972856)" fill="#FFFFFF"><path d="M3.44 5.84 l0 12.6 l6.48 0 l0 1.56 l-8.16 0 l0 -14.16 l1.68 0 z M13.04 10.64 l0 5.68 q0 1.08 0.51 1.77 t1.63 0.71 q1.44 0 2.17 -0.96 t0.73 -2.56 l0 -4.64 l1.56 0 l0 7.28 q0.02 0.56 0.08 2.08 l-1.48 0 q-0.02 -0.96 -0.04 -1.54 l-0.04 0 q-0.36 0.78 -1.21 1.28 t-1.93 0.5 q-1.72 -0.02 -2.63 -1.03 t-0.91 -2.71 l0 -5.86 l1.56 0 z M26.92 10.4 q2.22 0 3.58 1.48 l-1.24 1.1 q-0.94 -1.14 -2.36 -1.14 q-1.46 0 -2.31 0.95 t-0.85 2.53 q0 1.5 0.91 2.48 t2.25 1 q1.54 0 2.38 -1.16 l1.16 1.1 q-1.3 1.48 -3.54 1.5 q-2.14 -0.02 -3.47 -1.36 t-1.37 -3.56 q0.02 -2.24 1.4 -3.58 t3.46 -1.34 z M33.800000000000004 4.880000000000001 l0 9.88 l4.26 -4.12 l2.22 0 l-4.52 4.26 l4.98 5.1 l-2.3 0 l-4.64 -4.92 l0 4.92 l-1.56 0 l0 -15.12 l1.56 0 z M42.78000000000001 10.64 l2.9 7.34 l0.04 0 l2.78 -7.34 l1.7 0 l-4.58 11.66 q-0.54 1.4 -1.23 1.95 t-1.83 0.55 q-0.86 0 -1.4 -0.24 l0.2 -1.36 q0.28 0.16 1.16 0.16 q1.12 0 1.62 -1.38 l0.7 -1.92 l-3.88 -9.42 l1.82 0 z M59.400000000000006 5.84 l0 12.6 l6.48 0 l0 1.56 l-8.16 0 l0 -14.16 l1.68 0 z M71.7 10.4 q2.08 0 3.25 1.31 t1.19 3.71 l0 0.38 l-7.56 0 q0.12 1.3 0.98 2.14 t2.1 0.86 q1.9 0 2.96 -1.42 l1.18 0.92 q-0.74 0.96 -1.74 1.45 t-2.4 0.49 q-2.14 0 -3.44 -1.39 t-1.32 -3.53 q0 -2.12 1.33 -3.5 t3.47 -1.42 z M74.46000000000001 14.48 q-0.06 -1.22 -0.79 -1.93 t-2.05 -0.71 q-1.2 0 -2.02 0.68 t-1.02 1.96 l5.88 0 z M87.9 4.880000000000001 l0 15.12 l-1.56 0 l0 -1.66 l-0.04 0 q-0.48 0.9 -1.46 1.4 t-2.14 0.5 q-1.98 0 -3.31 -1.41 t-1.37 -3.51 q0 -2.14 1.37 -3.52 t3.55 -1.4 q2.02 0 3.36 1.6 l0.04 0 l0 -7.12 l1.56 0 z M79.70000000000002 15.32 q0 1.54 0.93 2.5 t2.39 0.98 q1.46 0 2.37 -0.96 t0.95 -2.52 q0 -1.52 -0.93 -2.5 t-2.41 -0.98 q-1.44 0 -2.35 0.97 t-0.95 2.51 z M95.20000000000002 10.4 q1.08 0 1.99 0.5 t1.33 1.34 l0.04 0 l0 -1.6 l1.56 0 l0 9.04 q0 2.4 -1.28 3.74 t-3.82 1.38 q-1.38 0 -2.5 -0.4 t-2.1 -1.38 l1.12 -1.28 q1.5 1.62 3.48 1.62 q3.54 0 3.54 -3.76 l0 -1.22 l-0.04 0 q-0.52 0.84 -1.44 1.29 t-1.88 0.45 q-2.16 0 -3.54 -1.35 t-1.42 -3.45 q0 -2.26 1.36 -3.58 t3.6 -1.34 z M91.92000000000002 15.32 q0 1.4 0.96 2.37 t2.34 0.99 q1.52 0 2.43 -0.98 t0.91 -2.42 q0 -1.54 -0.93 -2.48 t-2.43 -0.96 q-1.42 0 -2.35 1 t-0.93 2.48 z M107.26 10.4 q2.08 0 3.25 1.31 t1.19 3.71 l0 0.38 l-7.56 0 q0.12 1.3 0.98 2.14 t2.1 0.86 q1.9 0 2.96 -1.42 l1.18 0.92 q-0.74 0.96 -1.74 1.45 t-2.4 0.49 q-2.14 0 -3.44 -1.39 t-1.32 -3.53 q0 -2.12 1.33 -3.5 t3.47 -1.42 z M110.02000000000001 14.48 q-0.06 -1.22 -0.79 -1.93 t-2.05 -0.71 q-1.2 0 -2.02 0.68 t-1.02 1.96 l5.88 0 z M118.72000000000001 10.4 q0.36 0 0.64 0.1 l-0.1 1.58 q-0.44 -0.12 -0.84 -0.12 q-1.36 0 -2.05 0.89 t-0.69 2.51 l0 4.64 l-1.56 0 l0 -7.28 q0 -0.28 -0.08 -2.08 l1.48 0 q0.04 1.4 0.04 1.54 l0.04 0 q0.38 -0.8 1.23 -1.29 t1.89 -0.49 z" fill="#FFFFFF"></path></g><g id="SvgjsG1070" featurekey="duLK5n-0" transform="matrix(0.5854051460891713,0,0,0.5854051460891713,120.68388110387181,83.88564619717171)" fill="#FFFFFF"><path d="M4.3 20 l0 -12.48 l-3.76 0 l0 -1.76 l9.32 0 l0 1.76 l-3.76 0 l0 12.48 l-1.8 0 z M30.419999999999998 12.42 l5.5 7.58 l-2.06 0 l-5.44 -7.48 l-2.04 0 l0 7.48 l-1.72 0 l0 -14.24 l4.94 0 c0.9 0 1.74 0.36 2.38 1 s1 1.48 1 2.38 c0 1.58 -1.1 2.9 -2.56 3.28 z M26.38 7.48 l0 3.32 l3.22 0 c0.92 0 1.66 -0.74 1.66 -1.66 s-0.74 -1.66 -1.66 -1.66 l-3.22 0 z M60.14 20 l-1.58 -4.14 l-5.82 0 l-1.58 4.14 l-1.92 0 l5.48 -14.24 l1.86 0 l5.5 14.24 l-1.94 0 z M57.86 14.1 l-2.2 -5.76 l-2.22 5.76 l4.42 0 z M83.58 18.46 c1.78 0 3.44 -0.82 4.54 -2.26 l1.4 1.04 c-1.42 1.9 -3.6 2.98 -5.94 2.98 c-4.12 0 -7.46 -3.34 -7.46 -7.46 c0 -4.1 3.34 -7.44 7.46 -7.44 c2.36 0 4.54 1.1 5.96 3 l-1.42 1.04 c-1.08 -1.46 -2.74 -2.28 -4.54 -2.28 c-3.16 0 -5.7 2.54 -5.7 5.68 c0 3.16 2.54 5.7 5.7 5.7 z M115.5 20 l-5.9 -8.28 l-3.08 2.9 l0 5.38 l-1.78 0 l0 -14.24 l1.78 0 l0 6.46 l6.86 -6.46 l2.56 0 l-4.98 4.7 l6.8 9.54 l-2.26 0 z M153.82 20 l0 -7.2 l-5.02 -7.04 l2.2 0 l3.74 5.22 l3.74 -5.22 l2.18 0 l-5.02 7.04 l0 7.2 l-1.82 0 z M181.22 5.32 c4.1 0 7.46 3.34 7.46 7.46 c0 4.1 -3.36 7.42 -7.46 7.42 s-7.44 -3.32 -7.44 -7.42 c0 -4.12 3.34 -7.46 7.44 -7.46 z M181.22 18.44 c3.12 0 5.64 -2.56 5.64 -5.66 c0 -3.12 -2.52 -5.7 -5.64 -5.7 s-5.64 2.58 -5.64 5.7 c0 3.1 2.52 5.66 5.64 5.66 z M212.54 5.76 l1.8 0 l0 9.02 c0 3 -2.44 5.42 -5.44 5.42 c-2.98 0 -5.42 -2.42 -5.42 -5.42 l0 -9.02 l1.78 0 l0 9.02 c0 2.02 1.64 3.68 3.64 3.68 c2.02 0 3.64 -1.66 3.64 -3.68 l0 -9.02 z M235.76 12.42 l5.5 7.58 l-2.06 0 l-5.44 -7.48 l-2.04 0 l0 7.48 l-1.72 0 l0 -14.24 l4.94 0 c0.9 0 1.74 0.36 2.38 1 s1 1.48 1 2.38 c0 1.58 -1.1 2.9 -2.56 3.28 z M231.72 7.48 l0 3.32 l3.22 0 c0.92 0 1.66 -0.74 1.66 -1.66 s-0.74 -1.66 -1.66 -1.66 l-3.22 0 z M273.48 20 l0 -14.24 l1.8 0 l0 12.5 l7.8 0 l0 1.74 l-9.6 0 z M306.47999999999996 5.76 l1.8 0 l0 9.02 c0 3 -2.44 5.42 -5.44 5.42 c-2.98 0 -5.42 -2.42 -5.42 -5.42 l0 -9.02 l1.78 0 l0 9.02 c0 2.02 1.64 3.68 3.64 3.68 c2.02 0 3.64 -1.66 3.64 -3.68 l0 -9.02 z M330.78 18.46 c1.78 0 3.44 -0.82 4.54 -2.26 l1.4 1.04 c-1.42 1.9 -3.6 2.98 -5.94 2.98 c-4.12 0 -7.46 -3.34 -7.46 -7.46 c0 -4.1 3.34 -7.44 7.46 -7.44 c2.36 0 4.54 1.1 5.96 3 l-1.42 1.04 c-1.08 -1.46 -2.74 -2.28 -4.54 -2.28 c-3.16 0 -5.7 2.54 -5.7 5.68 c0 3.16 2.54 5.7 5.7 5.7 z M362.7 20 l-5.9 -8.28 l-3.08 2.9 l0 5.38 l-1.78 0 l0 -14.24 l1.78 0 l0 6.46 l6.86 -6.46 l2.56 0 l-4.98 4.7 l6.8 9.54 l-2.26 0 z" fill="#FFFFFF"></path></g></svg>