<svg xmlns="http://www.w3.org/2000/svg" viewBox="0 0 45.27 64.01"><defs><style>.cls-1{fill:#fff;}</style></defs><title>Asset 93</title><g id="Layer_2" data-name="Layer 2"><g id="Layer_1-2" data-name="Layer 1"><g id="_Group_" data-name="&lt;Group&gt;"><g id="_Group_2" data-name="&lt;Group&gt;"><g id="_Group_3" data-name="&lt;Group&gt;"><path className="cls-1" d="M38,64h0L7,63.84a7,7,0,0,1-7-7L.27,7a7,7,0,0,1,7-7h0l31,.17a7,7,0,0,1,7,7L45,57.05a7,7,0,0,1-7,7ZM7.27,2a5,5,0,0,0-5,5L2,56.81a5,5,0,0,0,5,5L38,62h0a5,5,0,0,0,5-5l.27-49.84a5,5,0,0,0-5-5L7.3,2Z"/></g><g id="_Group_4" data-name="&lt;Group&gt;"><path className="cls-1" d="M5.37,20h0a1,1,0,0,1-1-1L4.44,6.85A2.65,2.65,0,0,1,5.24,5a2.54,2.54,0,0,1,1.91-.78l12.25.07a1,1,0,0,1,0,2h0L7.13,6.17a1,1,0,0,0-.49.2.68.68,0,0,0-.2.49L6.37,19A1,1,0,0,1,5.37,20Z"/></g><g id="_Group_5" data-name="&lt;Group&gt;"><path className="cls-1" d="M38.23,59.84h0L26,59.77a1,1,0,0,1,0-2h0l12.26.07h0a.69.69,0,0,0,.69-.69L39,45a1,1,0,0,1,1-1h0a1,1,0,0,1,1,1l-.06,12.17A2.7,2.7,0,0,1,38.23,59.84Z"/></g></g><g id="_Group_6" data-name="&lt;Group&gt;"><g id="_Group_7" data-name="&lt;Group&gt;"><g id="_Group_8" data-name="&lt;Group&gt;"><path className="cls-1" d="M32.55,49.56H29.22a1,1,0,0,1,0-2h2.33v-2a15.94,15.94,0,0,1-6.45-4.09A7,7,0,0,1,23,36.7a1,1,0,1,1,2-.16,5,5,0,0,0,1.57,3.56,14.33,14.33,0,0,0,6.28,3.78,1,1,0,0,1,.71.95v3.73A1,1,0,0,1,32.55,49.56Z"/></g><g id="_Group_9" data-name="&lt;Group&gt;"><path className="cls-1" d="M22.63,49.56H12.72a1,1,0,0,1-1-1V44.83a1,1,0,0,1,.71-1,14.16,14.16,0,0,0,6.28-3.74,4.7,4.7,0,0,0,1.52-3.52,1,1,0,1,1,2,.12,6.62,6.62,0,0,1-2,4.78,16,16,0,0,1-6.45,4.05v2h8.91a1,1,0,0,1,0,2Z"/></g></g><g id="_Group_10" data-name="&lt;Group&gt;"><path className="cls-1" d="M24,45.83H12.72a1,1,0,1,1,0-2H24a1,1,0,1,1,0,2Z"/></g><g id="_Group_11" data-name="&lt;Group&gt;"><path className="cls-1" d="M32.55,45.83H26.76a1,1,0,0,1,0-2h5.79a1,1,0,0,1,0,2Z"/></g></g><g id="_Group_12" data-name="&lt;Group&gt;"><path className="cls-1" d="M27.9,39.45h0a6.31,6.31,0,0,1-3.54-1.21,6.44,6.44,0,0,1-1.07-1,1,1,0,0,1,.08-1.42,1,1,0,0,1,1.41.08,4.51,4.51,0,0,0,3.19,1.5,1,1,0,0,1,1,1A1,1,0,0,1,27.9,39.45Z"/></g><g id="_Group_13" data-name="&lt;Group&gt;"><path className="cls-1" d="M32.09,38a1,1,0,0,1-.77-.37,1,1,0,0,1,.14-1.4,5,5,0,0,0,1.69-2.5c1.19-4.09-2.78-8.06-5.67-11l-.41-.41c-1.57-1.57-3-3-4.44-4.33l-2.12,2a1,1,0,1,1-1.39-1.43c.86-.84,1.8-1.75,2.83-2.71a1,1,0,0,1,1.37,0c1.7,1.59,3.34,3.19,5.17,5l.4.41c3.07,3.07,7.7,7.71,6.18,12.93a6.94,6.94,0,0,1-2.35,3.49A1,1,0,0,1,32.09,38Z"/></g><g id="_Group_14" data-name="&lt;Group&gt;"><path className="cls-1" d="M17.18,39.46a7,7,0,0,1-2.31-.4,7.24,7.24,0,0,1-4.67-4.77c-1.52-5.21,3.1-9.85,6.16-12.91l.42-.43a1,1,0,0,1,1.42,1.41l-.43.43c-2.89,2.9-6.84,6.86-5.65,10.94a5.3,5.3,0,0,0,3.4,3.44,4.62,4.62,0,0,0,4.26-.54,4.9,4.9,0,0,0,.71-.63A1,1,0,0,1,22,37.34a6.81,6.81,0,0,1-1,.9A6.36,6.36,0,0,1,17.18,39.46Z"/></g></g></g></g></svg>