<svg width="20" height="20" viewBox="0 0 20 20" fill="none" xmlns="http://www.w3.org/2000/svg">
<path d="M17.9301 3.91216C17.9057 3.87556 17.8731 3.83896 17.8447 3.80643C16.0106 1.48841 13.1761 0 10 0C4.48556 0 0 4.48556 0 10C0 15.5144 4.48556 20 10 20C15.5144 20 20 15.5144 20 10C20 7.71045 19.2273 5.59984 17.926 3.91216H17.9301ZM10 17.56C5.83164 17.56 2.44002 14.1684 2.44002 10C2.44002 5.83164 5.83164 2.44002 10 2.44002C12.0211 2.44002 13.8552 3.24115 15.2135 4.53843L10 9.75193L7.90972 7.66165C7.43392 7.18585 6.66124 7.18585 6.18544 7.66165C5.70964 8.13745 5.70964 8.91013 6.18544 9.38593L9.13786 12.3383C9.3778 12.5783 9.68687 12.6962 10 12.6962C10.3131 12.6962 10.6263 12.5783 10.8621 12.3383L16.6978 6.50264C17.2469 7.54778 17.56 8.73526 17.56 10C17.56 14.1684 14.1684 17.56 10 17.56Z" fill="#ba120e"/>
</svg>
