<svg xmlns="http://www.w3.org/2000/svg" viewBox="0 0 64 62.69"><defs><style>.cls-1{fill:#fff;}</style></defs><title>Asset 92</title><g id="Layer_2" data-name="Layer 2"><g id="Layer_1-2" data-name="Layer 1"><g id="_Group_" data-name="&lt;Group&gt;"><g id="_Group_2" data-name="&lt;Group&gt;"><g id="_Group_3" data-name="&lt;Group&gt;"><g id="_Group_4" data-name="&lt;Group&gt;"><path className="cls-1" d="M28.26,57.85h-24A4.26,4.26,0,0,1,0,53.6V8.42A4.25,4.25,0,0,1,4.25,4.17H33.69a4.25,4.25,0,0,1,4.25,4.25V28.36a1,1,0,0,1-2,0V8.42a2.25,2.25,0,0,0-2.25-2.25H4.25A2.25,2.25,0,0,0,2,8.42V53.6a2.25,2.25,0,0,0,2.25,2.25h24a1,1,0,0,1,0,2Z"/></g><g id="_Group_5" data-name="&lt;Group&gt;"><g id="_Group_6" data-name="&lt;Group&gt;"><path className="cls-1" d="M14.21,37.1A5,5,0,0,1,10,34.66c-1.88-3.31,1.14-6.14,2.28-7.2l1.28-1.16c1.85-1.65,3.77-3.36,4.49-5.49a1,1,0,0,1,.95-.67h0a1,1,0,0,1,1,.67c.72,2.13,2.63,3.84,4.48,5.49.44.38.87.77,1.29,1.16,1.14,1.06,4.16,3.89,2.27,7.2A4.74,4.74,0,0,1,22.81,37,1,1,0,0,1,23.27,35a2.78,2.78,0,0,0,3-1.36c.78-1.38.23-2.75-1.91-4.75-.4-.38-.82-.75-1.25-1.13A22,22,0,0,1,19,23.41a22.4,22.4,0,0,1-4.11,4.38c-.42.38-.84.75-1.24,1.13-2.14,2-2.69,3.37-1.91,4.75a2.85,2.85,0,0,0,3.54,1.2,1,1,0,1,1,.84,1.82A4.58,4.58,0,0,1,14.21,37.1Z"/></g><g id="_Group_7" data-name="&lt;Group&gt;"><path className="cls-1" d="M24.72,41.88a1,1,0,0,1-.3-.05A9.33,9.33,0,0,1,19,37.77a8.71,8.71,0,0,1-1.79,2.11h2.37a1,1,0,0,1,0,2H13.26a1,1,0,0,1-1-.85,1,1,0,0,1,.7-1.11c3.93-1.2,5-4.2,5-5.16a1,1,0,0,1,1-.94h0a1,1,0,0,1,1,.94s.36,3.72,5,5.16a1,1,0,0,1-.3,2Z"/></g></g><g id="_Group_8" data-name="&lt;Group&gt;"><g id="_Group_9" data-name="&lt;Group&gt;"><path className="cls-1" d="M7.76,13.08a4,4,0,0,0,1.34.82,1.24,1.24,0,0,0,1.35-.61c.44-.76-.1-1.44-.69-2A6.34,6.34,0,0,1,7.75,9a6.47,6.47,0,0,1-2,2.35c-.58.55-1.13,1.23-.69,2a1.28,1.28,0,0,0,1.61.54,8,8,0,0,0,1.11-.75"/></g><g id="_Group_10" data-name="&lt;Group&gt;"><path className="cls-1" d="M9.66,15.27H5.84a2.32,2.32,0,0,0,1.92-1.76C7.78,13.81,8.12,14.85,9.66,15.27Z"/></g></g></g><g id="_Group_11" data-name="&lt;Group&gt;"><g id="_Group_12" data-name="&lt;Group&gt;"><path className="cls-1" d="M57.25,31.73a1,1,0,0,1-.33-.06,1,1,0,0,1-.61-1.28L61.89,14.6a1.85,1.85,0,0,0-1.12-2.36L32.25,2.16c-.83-.29-1.84-.24-2.2.78a1,1,0,0,1-1.89-.66,3.5,3.5,0,0,1,4.76-2L61.44,10.36a3.84,3.84,0,0,1,2.34,4.9l-5.59,15.8A1,1,0,0,1,57.25,31.73Z"/></g></g></g><g id="_Group_13" data-name="&lt;Group&gt;"><g id="_Group_14" data-name="&lt;Group&gt;"><path className="cls-1" d="M44.93,32.9a.65.65,0,0,1-1.29,0,.65.65,0,0,1,1.29,0Z"/></g><g id="_Group_15" data-name="&lt;Group&gt;"><path className="cls-1" d="M55.87,40a.64.64,0,1,1,.24-.87A.63.63,0,0,1,55.87,40Z"/></g><g id="_Group_16" data-name="&lt;Group&gt;"><path className="cls-1" d="M55.16,52.94a.64.64,0,1,1,.65-1.11.64.64,0,1,1-.65,1.11Z"/></g><g id="_Group_17" data-name="&lt;Group&gt;"><path className="cls-1" d="M43.64,58.83a.65.65,0,1,1,.64.64A.65.65,0,0,1,43.64,58.83Z"/></g><g id="_Group_18" data-name="&lt;Group&gt;"><path className="cls-1" d="M32.79,51.88a.64.64,0,0,1,.88.23.66.66,0,0,1-.23.88.64.64,0,1,1-.65-1.11Z"/></g><g id="_Group_19" data-name="&lt;Group&gt;"><path className="cls-1" d="M44.27,62.69A16.82,16.82,0,1,1,60.38,50.78,16.87,16.87,0,0,1,44.27,62.69Zm0-31.66a14.82,14.82,0,1,0,4.35.65A15.14,15.14,0,0,0,44.27,31Z"/></g><g id="_Group_20" data-name="&lt;Group&gt;"><path className="cls-1" d="M33.31,38.93a.64.64,0,0,1,.24.88.63.63,0,0,1-.87.24.64.64,0,0,1-.25-.87A.65.65,0,0,1,33.31,38.93Z"/></g><g id="_Group_21" data-name="&lt;Group&gt;"><path className="cls-1" d="M42.69,56.07a1,1,0,0,1-1-1v-2a1,1,0,0,1,2,0v2A1,1,0,0,1,42.69,56.07Z"/></g><g id="_Group_22" data-name="&lt;Group&gt;"><path className="cls-1" d="M45.41,56.18a1,1,0,0,1-1-1v-2.1a1,1,0,0,1,2,0v2.1A1,1,0,0,1,45.41,56.18Z"/></g><g id="_Group_23" data-name="&lt;Group&gt;"><path className="cls-1" d="M42.69,39.53a1,1,0,0,1-1-1V36.74a1,1,0,0,1,2,0v1.79A1,1,0,0,1,42.69,39.53Z"/></g><g id="_Group_24" data-name="&lt;Group&gt;"><path className="cls-1" d="M45.41,39.63a1,1,0,0,1-1-1V36.74a1,1,0,0,1,2,0v1.89A1,1,0,0,1,45.41,39.63Z"/></g><g id="_Group_25" data-name="&lt;Group&gt;"><path className="cls-1" d="M53.5,47.82h-2a1,1,0,0,1,0-2h2a1,1,0,0,1,0,2Z"/></g><g id="_Group_26" data-name="&lt;Group&gt;"><path className="cls-1" d="M53.5,45.36H51.4a1,1,0,1,1,0-2h2.1a1,1,0,0,1,0,2Z"/></g><g id="_Group_27" data-name="&lt;Group&gt;"><path className="cls-1" d="M44.3,56.22a10.37,10.37,0,0,1-9.23-5.62h0a10.35,10.35,0,1,1,9.23,5.62Zm-7.45-6.54A8.36,8.36,0,1,0,51.72,42a8.36,8.36,0,0,0-14.87,7.64Z"/></g><g id="_Group_28" data-name="&lt;Group&gt;"><path className="cls-1" d="M37.07,45.36H35.13a1,1,0,0,1,0-2h1.94a1,1,0,1,1,0,2Z"/></g><g id="_Group_29" data-name="&lt;Group&gt;"><path className="cls-1" d="M37.07,48.15H35a1,1,0,0,1,0-2h2.06a1,1,0,0,1,0,2Z"/></g><path className="cls-1" d="M44.68,47.14l-1.85-.73a2,2,0,0,1-1.08-1.69V44a2.1,2.1,0,0,1,2.1-2.09h.87A2.1,2.1,0,0,1,46.82,44v.35h-2V44a.09.09,0,0,0-.1-.09h-.87a.09.09,0,0,0-.1.09v.64l.08.07,1.57.59Z"/><path className="cls-1" d="M44.72,50h-.87a2.09,2.09,0,0,1-2.1-2.09v-.35h2v.35a.09.09,0,0,0,.1.09h.87a.09.09,0,0,0,.1-.09v-.64l-.1-.08-1.49-.57L44,44.72l1.77.7a2.08,2.08,0,0,1,1.1,1.72v.74A2.09,2.09,0,0,1,44.72,50Z"/><rect className="cls-1" x="43.35" y="41.38" width="2" height="1.63"/><rect className="cls-1" x="43.35" y="48.71" width="2" height="1.63"/></g></g></g></g></svg>