<?xml version="1.0" encoding="utf-8"?>
<!-- Generator: Adobe Illustrator 27.5.0, SVG Export Plug-In . SVG Version: 6.00 Build 0)  -->
<svg version="1.1" id="Layer_1" xmlns="http://www.w3.org/2000/svg" xmlns:xlink="http://www.w3.org/1999/xlink" x="0px" y="0px"
	 viewBox="0 0 4700 3400" style="enable-background:new 0 0 4700 3400;" xml:space="preserve">
<rect x="25" y="25" style="fill:#FFFFFF;" width="4650" height="3350"/>
<g>
	<g>
		<polygon style="fill:#B7081D;" points="3270.367,492.68 3270.367,2907.32 2350.436,2152.043 1430.505,2907.32 1430.505,492.68 		
			"/>
		<defs>
			<filter id="Adobe_OpacityMaskFilter" filterUnits="userSpaceOnUse" x="915" y="492.68" width="2870" height="49.933">
				<feFlood  style="flood-color:white;flood-opacity:1" result="back"/>
				<feBlend  in="SourceGraphic" in2="back" mode="normal"/>
			</filter>
		</defs>
		<mask maskUnits="userSpaceOnUse" x="915" y="492.68" width="2870" height="49.933" id="SVGID_1_">
			<g style="filter:url(#Adobe_OpacityMaskFilter);">
				<defs>
					
						<filter id="Adobe_OpacityMaskFilter_00000140724541282907437930000001961097611808338308_" filterUnits="userSpaceOnUse" x="915" y="492.68" width="2870" height="49.933">
						<feFlood  style="flood-color:white;flood-opacity:1" result="back"/>
						<feBlend  in="SourceGraphic" in2="back" mode="normal"/>
					</filter>
				</defs>
				<mask maskUnits="userSpaceOnUse" x="915" y="492.68" width="2870" height="49.933" id="SVGID_1_">
					<g style="filter:url(#Adobe_OpacityMaskFilter_00000140724541282907437930000001961097611808338308_);">
					</g>
				</mask>
				
					<linearGradient id="SVGID_00000082366723094628799130000017804381313712420514_" gradientUnits="userSpaceOnUse" x1="11553.0996" y1="302.7284" x2="11553.0996" y2="252.7951" gradientTransform="matrix(-1 0 0 -1 13903.0996 795.4087)">
					<stop  offset="0" style="stop-color:#FFFFFF"/>
					<stop  offset="0.0912" style="stop-color:#F1F1F1"/>
					<stop  offset="0.2625" style="stop-color:#CDCDCD"/>
					<stop  offset="0.4956" style="stop-color:#939393"/>
					<stop  offset="0.7782" style="stop-color:#434343"/>
					<stop  offset="1" style="stop-color:#000000"/>
				</linearGradient>
				<path style="mask:url(#SVGID_1_);fill:url(#SVGID_00000082366723094628799130000017804381313712420514_);" d="M921.526,542.614
					c-7.48,0-9.072-9.037-1.921-10.919c16.137-4.246,35.342-9.05,56.401-13.832c35.782-8.122,69.82-14.592,101.182-19.227
					c15.291-2.259,31.779-4.356,49.167-5.348c19.025-1.084,39.195-0.385,58.488-0.385c3.844,0,7.688,0,11.533,0
					c11.097,0,22.195,0,33.292,0c17.709,0,35.417,0,53.126,0c23.678,0,47.357,0,71.035,0c29.006,0,58.013,0,87.019,0
					c33.693,0,67.385,0,101.078,0c37.738,0,75.475,0,113.212,0c41.141,0,82.281,0,123.422,0c43.902,0,87.804,0,131.706,0
					c46.022,0,92.044,0,138.065,0c47.5,0,95,0,142.5,0c48.336,0,96.673,0,145.009,0c48.531,0,97.063,0,145.594,0
					c48.084,0,96.169,0,144.253,0c46.996,0,93.992,0,140.988,0c45.266,0,90.531,0,135.797,0c42.894,0,85.788,0,128.682,0
					c39.881,0,79.761,0,119.642,0c36.225,0,72.451,0,108.676,0c31.929,0,63.857,0,95.786,0c26.99,0,53.98,0,80.971,0
					c21.41,0,42.821,0,64.231,0c15.188,0,30.376,0,45.565,0c13.829,0,28.548,0.375,41.944,1.28
					c12.796,0.863,24.019,2.906,35.325,4.578c31.363,4.638,65.4,11.108,101.182,19.23c20.85,4.734,39.882,9.49,55.918,13.704
					c7.153,1.88,5.563,10.92-1.919,10.92H921.526z"/>
			</g>
		</mask>
		
			<linearGradient id="SVGID_00000179643831909440383970000011235570756656603029_" gradientUnits="userSpaceOnUse" x1="11553.0996" y1="302.7284" x2="11553.0996" y2="252.7951" gradientTransform="matrix(-1 0 0 -1 13903.0996 795.4087)">
			<stop  offset="0" style="stop-color:#333333"/>
			<stop  offset="0.1093" style="stop-color:#414141"/>
			<stop  offset="0.3147" style="stop-color:#656565"/>
			<stop  offset="0.5941" style="stop-color:#9F9F9F"/>
			<stop  offset="0.9336" style="stop-color:#EFEFEF"/>
			<stop  offset="1" style="stop-color:#FFFFFF"/>
		</linearGradient>
		<path style="fill:url(#SVGID_00000179643831909440383970000011235570756656603029_);" d="M921.526,542.614
			c-7.48,0-9.072-9.037-1.921-10.919c16.137-4.246,35.342-9.05,56.401-13.832c35.782-8.122,69.82-14.592,101.182-19.227
			c15.291-2.259,31.779-4.356,49.167-5.348c19.025-1.084,39.195-0.385,58.488-0.385c3.844,0,7.688,0,11.533,0
			c11.097,0,22.195,0,33.292,0c17.709,0,35.417,0,53.126,0c23.678,0,47.357,0,71.035,0c29.006,0,58.013,0,87.019,0
			c33.693,0,67.385,0,101.078,0c37.738,0,75.475,0,113.212,0c41.141,0,82.281,0,123.422,0c43.902,0,87.804,0,131.706,0
			c46.022,0,92.044,0,138.065,0c47.5,0,95,0,142.5,0c48.336,0,96.673,0,145.009,0c48.531,0,97.063,0,145.594,0
			c48.084,0,96.169,0,144.253,0c46.996,0,93.992,0,140.988,0c45.266,0,90.531,0,135.797,0c42.894,0,85.788,0,128.682,0
			c39.881,0,79.761,0,119.642,0c36.225,0,72.451,0,108.676,0c31.929,0,63.857,0,95.786,0c26.99,0,53.98,0,80.971,0
			c21.41,0,42.821,0,64.231,0c15.188,0,30.376,0,45.565,0c13.829,0,28.548,0.375,41.944,1.28
			c12.796,0.863,24.019,2.906,35.325,4.578c31.363,4.638,65.4,11.108,101.182,19.23c20.85,4.734,39.882,9.49,55.918,13.704
			c7.153,1.88,5.563,10.92-1.919,10.92H921.526z"/>
	</g>
	<g>
		<g>
			<path style="fill:#FFFFFF;" d="M1896.332,1197.884l59.072-391.453h120.508v551.342h-81.914V962.383l-59.86,395.391h-81.914
				l-64.586-389.878v389.878h-75.613V806.432h120.508L1896.332,1197.884z"/>
			<path style="fill:#FFFFFF;" d="M2131.824,938.753c0-88.215,46.47-138.623,131.534-138.623
				c85.064,0,131.535,50.408,131.535,138.623v286.698c0,88.214-46.47,138.623-131.535,138.623
				c-85.064,0-131.534-50.408-131.534-138.623V938.753z M2218.464,1230.965c0,39.381,17.328,54.347,44.895,54.347
				c27.567,0,44.895-14.965,44.895-54.347V933.24c0-39.381-17.328-54.347-44.895-54.347c-27.567,0-44.895,14.965-44.895,54.347
				V1230.965z"/>
			<path style="fill:#FFFFFF;" d="M2567.383,800.13c84.277,0,127.596,50.408,127.596,138.623v17.328h-81.914V933.24
				c0-39.381-15.753-54.347-43.32-54.347c-27.567,0-43.32,14.965-43.32,54.347c0,113.419,169.341,134.685,169.341,292.211
				c0,88.214-44.107,138.623-129.172,138.623s-129.172-50.408-129.172-138.623v-33.868h81.914v39.382
				c0,39.381,17.328,53.559,44.895,53.559s44.895-14.178,44.895-53.559c0-113.419-169.341-134.685-169.341-292.211
				C2439.786,850.539,2483.106,800.13,2567.383,800.13z"/>
			<path style="fill:#FFFFFF;" d="M2720.179,806.432h267.795v78.763h-90.578v472.579h-86.639V885.195h-90.578V806.432z"/>
		</g>
		<g>
			<path style="fill:#FFFFFF;" d="M1869.779,1545.524v44.053c0,54.219-26.141,83.749-79.392,83.749h-25.173v127.318h-53.251
				v-338.868h78.424C1843.638,1461.775,1869.779,1491.305,1869.779,1545.524z M1765.214,1510.185v114.731h25.173
				c16.943,0,26.141-7.746,26.141-31.95v-50.83c0-24.205-9.198-31.95-26.141-31.95H1765.214z"/>
			<path style="fill:#FFFFFF;" d="M1890.112,1543.103c0-54.219,28.562-85.201,80.844-85.201c52.282,0,80.844,30.982,80.844,85.201
				v176.212c0,54.219-28.562,85.201-80.844,85.201c-52.282,0-80.844-30.982-80.844-85.201V1543.103z M1943.362,1722.703
				c0,24.205,10.65,33.403,27.594,33.403s27.594-9.198,27.594-33.403v-182.989c0-24.205-10.65-33.403-27.594-33.403
				s-27.594,9.198-27.594,33.403V1722.703z"/>
			<path style="fill:#FFFFFF;" d="M2243.986,1545.524v44.053c0,54.219-26.142,83.749-79.392,83.749h-25.173v127.318h-53.25v-338.868
				h78.424C2217.844,1461.775,2243.986,1491.305,2243.986,1545.524z M2139.42,1510.185v114.731h25.173
				c16.943,0,26.141-7.746,26.141-31.95v-50.83c0-24.205-9.198-31.95-26.141-31.95H2139.42z"/>
			<path style="fill:#FFFFFF;" d="M2319.505,1461.775v261.412c0,24.205,10.65,32.919,27.594,32.919
				c16.943,0,27.594-8.714,27.594-32.919v-261.412h50.346v258.024c0,54.219-27.109,85.201-79.392,85.201
				s-79.392-30.982-79.392-85.201v-258.024H2319.505z"/>
			<path style="fill:#FFFFFF;" d="M2461.344,1461.775h53.251v290.458h87.622v48.41h-140.872V1461.775z"/>
			<path style="fill:#FFFFFF;" d="M2797.786,1800.643h-53.735l-9.198-61.48h-65.353l-9.198,61.48h-48.894l54.219-338.868h77.94
				L2797.786,1800.643z M2676.278,1693.173h51.314l-25.657-171.37L2676.278,1693.173z"/>
			<path style="fill:#FFFFFF;" d="M2933.817,1800.643c-2.904-8.714-4.841-14.039-4.841-41.632v-53.251
				c0-31.466-10.65-43.084-34.855-43.084h-18.396v137.968h-53.25v-338.868h80.36c55.187,0,78.908,25.657,78.908,77.94v26.625
				c0,34.855-11.134,57.608-34.855,68.742c26.625,11.134,35.339,36.791,35.339,72.13v52.282c0,16.459,0.484,28.562,5.809,41.148
				H2933.817z M2875.726,1510.185v104.081h20.816c19.848,0,31.95-8.714,31.95-35.823v-33.403c0-24.205-8.23-34.855-27.109-34.855
				H2875.726z"/>
		</g>
	</g>
</g>
</svg>
