<svg xmlns="http://www.w3.org/2000/svg" viewBox="0 0 62.8 62.8"><defs><style>.cls-1{fill:#fff;}</style></defs><title>Asset 94</title><g id="Layer_2" data-name="Layer 2"><g id="Layer_1-2" data-name="Layer 1"><g id="_Group_" data-name="&lt;Group&gt;"><g id="_Group_2" data-name="&lt;Group&gt;"><path className="cls-1" d="M31.4,53.19A21.79,21.79,0,1,1,53.19,31.4,21.81,21.81,0,0,1,31.4,53.19Zm0-41.58A19.79,19.79,0,1,0,51.19,31.4,19.82,19.82,0,0,0,31.4,11.61Z"/></g><g id="_Group_3" data-name="&lt;Group&gt;"><path className="cls-1" d="M34.93,8.9a3,3,0,1,1,3-3A3,3,0,0,1,34.93,8.9Zm0-3.95a1,1,0,1,0,1,1A1,1,0,0,0,34.93,5Z"/></g><g id="_Group_4" data-name="&lt;Group&gt;"><path className="cls-1" d="M31.4,18.69a1,1,0,0,1-1-1V10.61a1,1,0,0,1,2,0v7.08A1,1,0,0,1,31.4,18.69Z"/></g><g id="_Group_5" data-name="&lt;Group&gt;"><path className="cls-1" d="M35.59,19.35a1,1,0,0,1-.3-.05A1,1,0,0,1,34.64,18L36.8,11.3a1,1,0,1,1,1.91.61l-2.17,6.74A1,1,0,0,1,35.59,19.35Z"/></g><g id="_Group_6" data-name="&lt;Group&gt;"><path className="cls-1" d="M39.38,21.25a1,1,0,0,1-.58-.18,1,1,0,0,1-.23-1.4l4.12-5.75a1,1,0,0,1,1.63,1.16L40.2,20.83A1,1,0,0,1,39.38,21.25Z"/></g><g id="_Group_7" data-name="&lt;Group&gt;"><path className="cls-1" d="M42.41,24.23a1,1,0,0,1-.8-.4,1,1,0,0,1,.2-1.4l5.69-4.22a1,1,0,1,1,1.19,1.6L43,24A1,1,0,0,1,42.41,24.23Z"/></g><g id="_Group_8" data-name="&lt;Group&gt;"><path className="cls-1" d="M44.38,28A1,1,0,0,1,44.06,26l6.7-2.28a1,1,0,0,1,.64,1.9l-6.7,2.28A1.13,1.13,0,0,1,44.38,28Z"/></g><g id="_Group_9" data-name="&lt;Group&gt;"><path className="cls-1" d="M45.11,32.17a1,1,0,0,1,0-2l7.08-.12h0a1,1,0,0,1,0,2l-7.08.12Z"/></g><g id="_Group_10" data-name="&lt;Group&gt;"><path className="cls-1" d="M51.3,38.43a.93.93,0,0,1-.29,0l-6.78-2.05a1,1,0,0,1-.67-1.25,1,1,0,0,1,1.25-.66l6.78,2a1,1,0,0,1,.66,1.25A1,1,0,0,1,51.3,38.43Z"/></g><g id="_Group_11" data-name="&lt;Group&gt;"><path className="cls-1" d="M48.5,44.22a1,1,0,0,1-.57-.18l-5.82-4a1,1,0,1,1,1.13-1.65l5.83,4a1,1,0,0,1-.57,1.82Z"/></g><g id="_Group_12" data-name="&lt;Group&gt;"><path className="cls-1" d="M44.06,48.89a1,1,0,0,1-.79-.39L39,42.88a1,1,0,1,1,1.58-1.22l4.32,5.62a1,1,0,0,1-.19,1.4A1,1,0,0,1,44.06,48.89Z"/></g><g id="_Group_13" data-name="&lt;Group&gt;"><path className="cls-1" d="M38.41,52a1,1,0,0,1-.94-.66l-2.39-6.67A1,1,0,0,1,37,44l2.38,6.66a1,1,0,0,1-.6,1.28A1,1,0,0,1,38.41,52Z"/></g><g id="_Group_14" data-name="&lt;Group&gt;"><path className="cls-1" d="M32.09,53.18a1,1,0,0,1-1-1l-.23-7.08a1,1,0,1,1,2-.06l.23,7.07a1,1,0,0,1-1,1Z"/></g><g id="_Group_15" data-name="&lt;Group&gt;"><path className="cls-1" d="M25.7,52.39a.84.84,0,0,1-.27,0,1,1,0,0,1-.69-1.23l1.94-6.81a1,1,0,1,1,1.93.55l-1.94,6.81A1,1,0,0,1,25.7,52.39Z"/></g><g id="_Group_16" data-name="&lt;Group&gt;"><path className="cls-1" d="M19.86,49.69a.94.94,0,0,1-.55-.17A1,1,0,0,1,19,48.14L23,42.25a1,1,0,1,1,1.66,1.11l-3.93,5.89A1,1,0,0,1,19.86,49.69Z"/></g><g id="_Group_17" data-name="&lt;Group&gt;"><path className="cls-1" d="M15.13,45.34a1,1,0,0,1-.63-1.79L20,39.15a1,1,0,1,1,1.25,1.56l-5.54,4.41A1.07,1.07,0,0,1,15.13,45.34Z"/></g><g id="_Group_18" data-name="&lt;Group&gt;"><path className="cls-1" d="M12,39.74a1,1,0,0,1-.35-1.94l6.62-2.5a1,1,0,0,1,1.29.59,1,1,0,0,1-.59,1.28l-6.62,2.5A.84.84,0,0,1,12,39.74Z"/></g><g id="_Group_19" data-name="&lt;Group&gt;"><path className="cls-1" d="M10.63,33.44a1,1,0,0,1,0-2l7.07-.36a1,1,0,0,1,.1,2l-7.07.36Z"/></g><g id="_Group_20" data-name="&lt;Group&gt;"><path className="cls-1" d="M18.15,28.86l-.26,0L11.05,27a1,1,0,0,1,.52-1.93l6.84,1.83a1,1,0,0,1-.26,2Z"/></g><g id="_Group_21" data-name="&lt;Group&gt;"><path className="cls-1" d="M19.87,25a1,1,0,0,1-.54-.16l-6-3.83a1,1,0,0,1-.3-1.38,1,1,0,0,1,1.39-.3l5.95,3.83a1,1,0,0,1,.3,1.38A1,1,0,0,1,19.87,25Z"/></g><g id="_Group_22" data-name="&lt;Group&gt;"><path className="cls-1" d="M22.69,21.81a1,1,0,0,1-.77-.36L17.42,16a1,1,0,0,1,.14-1.41,1,1,0,0,1,1.4.14l4.5,5.47a1,1,0,0,1-.14,1.4A.94.94,0,0,1,22.69,21.81Z"/></g><g id="_Group_23" data-name="&lt;Group&gt;"><path className="cls-1" d="M31.41,46.11a14.73,14.73,0,1,1,5.41-1h0A14.53,14.53,0,0,1,31.41,46.11Zm0-27.43a12.71,12.71,0,1,0,4.69,24.53h0a12.72,12.72,0,0,0-4.69-24.53Z"/></g><g id="_Group_24" data-name="&lt;Group&gt;"><path className="cls-1" d="M26.35,19.65a1,1,0,0,1-.93-.63l-2.61-6.58a1,1,0,0,1,.56-1.3,1,1,0,0,1,1.3.57l2.6,6.58a1,1,0,0,1-.56,1.29A.92.92,0,0,1,26.35,19.65Z"/></g><g id="_Group_25" data-name="&lt;Group&gt;"><path className="cls-1" d="M31.4,62.8A31.4,31.4,0,1,1,62.8,31.4,31.44,31.44,0,0,1,31.4,62.8ZM31.4,2A29.4,29.4,0,1,0,60.8,31.4,29.43,29.43,0,0,0,31.4,2Z"/></g><g id="_Group_26" data-name="&lt;Group&gt;"><path className="cls-1" d="M31.4,57.9A26.53,26.53,0,0,1,4.9,31.4a1,1,0,0,1,2,0A24.53,24.53,0,0,0,31.4,55.9a1,1,0,0,1,0,2Z"/></g><g id="_Group_27" data-name="&lt;Group&gt;"><path className="cls-1" d="M56.9,32.4a1,1,0,0,1-1-1A24.41,24.41,0,0,0,42.5,9.56a1,1,0,1,1,.91-1.79A26.44,26.44,0,0,1,57.9,31.4,1,1,0,0,1,56.9,32.4Z"/></g><g id="_Group_28" data-name="&lt;Group&gt;"><path className="cls-1" d="M31.4,31.93a1,1,0,0,1-1-1V24.61a1,1,0,0,1,2,0v6.32A1,1,0,0,1,31.4,31.93Z"/></g><g id="_Group_29" data-name="&lt;Group&gt;"><path className="cls-1" d="M31.4,38.57a1,1,0,0,1-1-1V31.09a1,1,0,1,1,2,0v6.48A1,1,0,0,1,31.4,38.57Z"/></g><g id="_Group_30" data-name="&lt;Group&gt;"><path className="cls-1" d="M37.88,32.09H31.4a1,1,0,1,1,0-2h6.48a1,1,0,0,1,0,2Z"/></g><g id="_Group_31" data-name="&lt;Group&gt;"><path className="cls-1" d="M31.4,32.09H24.92a1,1,0,1,1,0-2H31.4a1,1,0,0,1,0,2Z"/></g><g id="_Group_32" data-name="&lt;Group&gt;"><path className="cls-1" d="M32.4,25.49H30.5a1,1,0,0,1,0-2h1.9a1,1,0,0,1,0,2Z"/></g><g id="_Group_33" data-name="&lt;Group&gt;"><path className="cls-1" d="M38.07,33.08a1,1,0,0,1-1-1V30.17a1,1,0,0,1,2,0v1.91A1,1,0,0,1,38.07,33.08Z"/></g><g id="_Group_34" data-name="&lt;Group&gt;"><path className="cls-1" d="M32.56,38.57H30.41a1,1,0,0,1,0-2h2.15a1,1,0,0,1,0,2Z"/></g><g id="_Group_35" data-name="&lt;Group&gt;"><path className="cls-1" d="M24.72,33.08a1,1,0,0,1-1-1V30a1,1,0,0,1,2,0v2A1,1,0,0,1,24.72,33.08Z"/></g><g id="_Group_36" data-name="&lt;Group&gt;"><path className="cls-1" d="M31.4,22.72a1,1,0,0,1-1-1v-4a1,1,0,0,1,2,0v4A1,1,0,0,1,31.4,22.72Z"/></g><g id="_Group_37" data-name="&lt;Group&gt;"><path className="cls-1" d="M31.63,46.11a1,1,0,0,1-1-1V41.5a1,1,0,0,1,2,0v3.61A1,1,0,0,1,31.63,46.11Z"/></g><g id="_Group_38" data-name="&lt;Group&gt;"><path className="cls-1" d="M21.27,32.63H17.69a1,1,0,0,1,0-2h3.58a1,1,0,0,1,0,2Z"/></g><g id="_Group_39" data-name="&lt;Group&gt;"><path className="cls-1" d="M45.09,31.71H41a1,1,0,0,1,0-2h4.06a1,1,0,0,1,0,2Z"/></g></g></g></g></svg>