<svg xmlns="http://www.w3.org/2000/svg" viewBox="0 0 50.73 64"><defs><style>.cls-1{fill:#fff;}</style></defs><title>Asset 96</title><g id="Layer_2" data-name="Layer 2"><g id="Layer_1-2" data-name="Layer 1"><g id="_Group_" data-name="&lt;Group&gt;"><g id="_Group_2" data-name="&lt;Group&gt;"><path className="cls-1" d="M38.71,44.52H4.64a1,1,0,0,1-1-1V19.59a1,1,0,0,1,1-1H38.71a1,1,0,0,1,1,1V43.52A1,1,0,0,1,38.71,44.52Zm-33.07-2H37.71V20.59H5.64Z"/></g><g id="_Group_3" data-name="&lt;Group&gt;"><path className="cls-1" d="M42.35,64H1a1,1,0,0,1-1-1V52.7a1,1,0,0,1,.07-.37l3.64-9.18a1,1,0,0,1,1.86.74L2,52.89V62H41.35V52.89l-3.57-9a1,1,0,0,1,.93-1.37,2.94,2.94,0,0,0,2.94-2.94V38a2.94,2.94,0,0,0-2.94-2.94,1,1,0,1,1,0-2A5,5,0,0,1,43.65,38v1.59a5,5,0,0,1-3.55,4.74l3.18,8a1,1,0,0,1,.07.37V63A1,1,0,0,1,42.35,64Z"/></g><g id="_Group_4" data-name="&lt;Group&gt;"><g id="_Group_5" data-name="&lt;Group&gt;"><path className="cls-1" d="M11.91,32.69H7.61a1,1,0,0,1-1-1V23.76a1,1,0,0,1,1-1h4.3a1,1,0,0,1,1,1v7.93A1,1,0,0,1,11.91,32.69Zm-3.3-2h2.3V24.76H8.61Z"/></g><g id="_Group_6" data-name="&lt;Group&gt;"><path className="cls-1" d="M11.91,40.61H7.61a1,1,0,0,1-1-1V31.69a1,1,0,0,1,1-1h4.3a1,1,0,0,1,1,1v7.92A1,1,0,0,1,11.91,40.61Zm-3.3-2h2.3V32.69H8.61Z"/></g><g id="_Group_7" data-name="&lt;Group&gt;"><path className="cls-1" d="M19.85,32.69h-4.3a1,1,0,0,1-1-1V23.76a1,1,0,0,1,1-1h4.3a1,1,0,0,1,1,1v7.93A1,1,0,0,1,19.85,32.69Zm-3.3-2h2.3V24.76h-2.3Z"/></g><g id="_Group_8" data-name="&lt;Group&gt;"><path className="cls-1" d="M19.85,40.61h-4.3a1,1,0,0,1-1-1V31.69a1,1,0,0,1,1-1h4.3a1,1,0,0,1,1,1v7.92A1,1,0,0,1,19.85,40.61Zm-3.3-2h2.3V32.69h-2.3Z"/></g><g id="_Group_9" data-name="&lt;Group&gt;"><path className="cls-1" d="M27.8,32.69H23.49a1,1,0,0,1-1-1V23.76a1,1,0,0,1,1-1H27.8a1,1,0,0,1,1,1v7.93A1,1,0,0,1,27.8,32.69Zm-3.31-2H26.8V24.76H24.49Z"/></g><g id="_Group_10" data-name="&lt;Group&gt;"><path className="cls-1" d="M27.8,40.61H23.49a1,1,0,0,1-1-1V31.69a1,1,0,0,1,1-1H27.8a1,1,0,0,1,1,1v7.92A1,1,0,0,1,27.8,40.61Zm-3.31-2H26.8V32.69H24.49Z"/></g><g id="_Group_11" data-name="&lt;Group&gt;"><path className="cls-1" d="M35.74,32.69h-4.3a1,1,0,0,1-1-1V23.76a1,1,0,0,1,1-1h4.3a1,1,0,0,1,1,1v7.93A1,1,0,0,1,35.74,32.69Zm-3.3-2h2.3V24.76h-2.3Z"/></g><g id="_Group_12" data-name="&lt;Group&gt;"><path className="cls-1" d="M35.74,40.61h-4.3a1,1,0,0,1-1-1V31.69a1,1,0,0,1,1-1h4.3a1,1,0,0,1,1,1v7.92A1,1,0,0,1,35.74,40.61Zm-3.3-2h2.3V32.69h-2.3Z"/></g></g><g id="_Group_13" data-name="&lt;Group&gt;"><path className="cls-1" d="M4.64,20.59a1,1,0,0,1-.94-.66L2.44,16.42a1,1,0,0,1,.12-.91,1,1,0,0,1,.82-.43H40.11a1,1,0,0,1,.83.44,1,1,0,0,1,.1.93L39.64,20a1,1,0,1,1-1.86-.74l.86-2.14H4.8l.78,2.18a1,1,0,0,1-.94,1.33Z"/></g><g id="_Group_14" data-name="&lt;Group&gt;"><path className="cls-1" d="M40.11,17.08a1,1,0,0,1-1-1V2H4.38V16.08a1,1,0,0,1-2,0V1a1,1,0,0,1,1-1H40.11a1,1,0,0,1,1,1V16.08A1,1,0,0,1,40.11,17.08Z"/></g><g id="_Group_15" data-name="&lt;Group&gt;"><path className="cls-1" d="M35.24,53.7H1a1,1,0,0,1,0-2H35.24a1,1,0,0,1,0,2Z"/></g><g id="_Group_16" data-name="&lt;Group&gt;"><path className="cls-1" d="M42.65,40.58a1,1,0,0,1-.62-.21A1,1,0,0,1,41.86,39l4.08-5.25V19.59a1,1,0,0,1,2,0V34.05a1.08,1.08,0,0,1-.21.62l-4.29,5.52A1,1,0,0,1,42.65,40.58Z"/></g><g id="_Group_17" data-name="&lt;Group&gt;"><path className="cls-1" d="M46.94,20.59a3.8,3.8,0,1,1,3.79-3.79A3.75,3.75,0,0,1,50,19.1a1,1,0,1,1-1.59-1.21,1.8,1.8,0,1,0-1.43.7,1,1,0,0,1,0,2Z"/></g><g id="_Group_18" data-name="&lt;Group&gt;"><path className="cls-1" d="M38.71,51.51h-3a1,1,0,0,1-.92-.62l-2-4.72a1,1,0,0,1,.93-1.38h3a1,1,0,0,1,.93.62l2,4.72a1,1,0,0,1-.09.94A1,1,0,0,1,38.71,51.51Zm-2.37-2h.87l-1.13-2.72h-.87Z"/></g><g id="_Group_19" data-name="&lt;Group&gt;"><path className="cls-1" d="M11.5,50.61H7.61a1,1,0,0,1-1-1.3l1-3.29a1,1,0,0,1,1-.7h3.74a1,1,0,0,1,.79.39,1,1,0,0,1,.17.87l-.88,3.29A1,1,0,0,1,11.5,50.61ZM9,48.61h1.76l.35-1.29H9.38Z"/></g><g id="_Group_20" data-name="&lt;Group&gt;"><path className="cls-1" d="M19.36,50.61H15.47a1,1,0,0,1-.81-.41,1,1,0,0,1-.14-.89l1-3.29a1,1,0,0,1,1-.7h3.74a1,1,0,0,1,.79.39,1,1,0,0,1,.18.87l-.89,3.29A1,1,0,0,1,19.36,50.61Zm-2.53-2H18.6L19,47.32H17.24Z"/></g><g id="_Group_21" data-name="&lt;Group&gt;"><path className="cls-1" d="M28.06,13.37H7.61a1,1,0,0,1-1-1V5.61a1,1,0,0,1,1-1H33.33a1,1,0,0,1,0,2H8.61v4.76H28.06a1,1,0,0,1,0,2Z"/></g></g></g></g></svg>