<svg xmlns="http://www.w3.org/2000/svg" width="166" height="30" fill="none"><g clip-path="url(#a)"><path fill="#DCDCDC" d="M80.642 29.664h-78.8a1.462 1.462 0 0 1-1.463-1.462V14.547A14.269 14.269 0 0 1 14.65.277h65.993a1.462 1.462 0 0 1 1.462 1.463v26.52a1.462 1.462 0 0 1-1.462 1.462v-.058Z"/><path fill="#fff" d="M80.657 30H1.856a1.74 1.74 0 0 1-1.74-1.74V14.605a14.62 14.62 0 0 1 14.62-14.62h65.92a1.74 1.74 0 0 1 1.74 1.74V28.26a1.74 1.74 0 0 1-1.74 1.74ZM14.707.687A13.947 13.947 0 0 0 .774 14.62v13.655a1.067 1.067 0 0 0 1.067 1.067h78.816a1.068 1.068 0 0 0 1.067-1.067V1.74A1.068 1.068 0 0 0 80.657.673l-65.95.014Z"/><path fill="#fff" d="M27.967 13.947v10.95a.205.205 0 0 1-.205.205h-4.298a.205.205 0 0 1-.205-.204.205.205 0 0 0-.278-.19c-.43.137-.87.24-1.315.307-.537.085-1.08.128-1.623.131a10.338 10.338 0 0 1-3.83-.804 9.913 9.913 0 0 1-3.378-2.237 9.767 9.767 0 0 1-2.207-3.319 10.395 10.395 0 0 1-.731-3.83c0-1.316.248-2.62.73-3.845a9.738 9.738 0 0 1 2.223-3.377 9.913 9.913 0 0 1 3.377-2.237c2.466-1 5.224-1 7.69 0a9.868 9.868 0 0 1 3.216 2.09.205.205 0 0 1 0 .293l-3.026 3.026a.204.204 0 0 1-.292 0 5.263 5.263 0 0 0-1.682-1.067 5.57 5.57 0 0 0-4.152 0 5.293 5.293 0 0 0-1.827 1.199 5.497 5.497 0 0 0 0 7.792 5.35 5.35 0 0 0 1.623 1.126 5.484 5.484 0 0 0 1.856.468 5.733 5.733 0 0 0 1.901-.175 5.22 5.22 0 0 0 1.652-.76.205.205 0 0 0 .088-.176v-.702a.205.205 0 0 0-.205-.205H19.4a.204.204 0 0 1-.204-.204v-4.255a.205.205 0 0 1 .204-.204h8.348a.204.204 0 0 1 .22.204ZM43.96 24.985l-.7-2.105a.205.205 0 0 0-.206-.146h-6.11a.205.205 0 0 0-.19.146l-.732 2.178a.205.205 0 0 1-.19.147H31.33a.205.205 0 0 1-.19-.278l6.77-19.883a.205.205 0 0 1 .19-.146h4.122a.205.205 0 0 1 .205.146l6.418 19.883a.205.205 0 0 1-.205.278h-4.474a.204.204 0 0 1-.204-.22Zm-5.248-6.988h2.72a.205.205 0 0 0 .204-.278l-1.316-4.064a.205.205 0 0 0-.394 0l-1.462 4.064a.205.205 0 0 0 .248.278ZM66.782 4.795h4.474a.205.205 0 0 1 .205.19l1.17 19.913a.205.205 0 0 1-.205.219h-4.27a.205.205 0 0 1-.204-.19l-.424-7.047a.205.205 0 0 0-.41 0l-2.397 7.105a.204.204 0 0 1-.19.147h-4.386a.205.205 0 0 1-.19-.147l-2.631-7.514a.205.205 0 0 0-.41 0l-.468 7.397a.205.205 0 0 1-.204.19h-4.299a.206.206 0 0 1-.204-.219L53.025 5a.205.205 0 0 1 .205-.19h4.474a.205.205 0 0 1 .19.146l4.21 12.018a.204.204 0 0 0 .395 0l4.093-12.018a.205.205 0 0 1 .19-.16Z"/><path fill="#DCDCDC" d="M85.306.336h78.83a1.462 1.462 0 0 1 1.462 1.462v13.655a14.268 14.268 0 0 1-14.269 14.27H85.306a1.462 1.462 0 0 1-1.462-1.463V1.74A1.462 1.462 0 0 1 85.306.336Z"/><path fill="#fff" d="M151.271 30H85.306a1.74 1.74 0 0 1-1.74-1.74V1.74A1.74 1.74 0 0 1 85.306 0h78.831a1.74 1.74 0 0 1 1.739 1.74v13.655A14.62 14.62 0 0 1 151.271 30ZM85.306.687a1.067 1.067 0 0 0-1.067 1.067V28.26a1.068 1.068 0 0 0 1.067 1.067h65.965a13.948 13.948 0 0 0 13.933-13.932V1.74a1.068 1.068 0 0 0-1.067-1.067l-78.83.014Z"/><path fill="#fff" d="M96.885 25.132a7.208 7.208 0 0 1-1.915-.264 6.507 6.507 0 0 1-1.813-.818 6.798 6.798 0 0 1-2.325-2.5A6.915 6.915 0 0 1 90 18.406a.204.204 0 0 1 .205-.219h4.342a.205.205 0 0 1 .205.205c.002.388.125.766.35 1.082.177.245.395.458.644.628.32.22.694.347 1.082.366a2.44 2.44 0 0 0 1.14-.22c.235-.091.45-.23.629-.409.142-.144.266-.306.365-.482a1.33 1.33 0 0 0 .146-.453 2.345 2.345 0 0 0 0-.717 1.464 1.464 0 0 0-.146-.468 1.887 1.887 0 0 0-.365-.482 2.384 2.384 0 0 0-.629-.424l-.643-.249-.731-.248-1.462-.497a8.041 8.041 0 0 1-1.462-.746 5.85 5.85 0 0 1-1.638-1.462 6.038 6.038 0 0 1-1.155-4.137c.067-.751.28-1.481.629-2.15a6.082 6.082 0 0 1 1.243-1.637A5.966 5.966 0 0 1 94.4 4.591a6.023 6.023 0 0 1 1.959-.483 6.477 6.477 0 0 1 2.134.19 6.2 6.2 0 0 1 1.901.79 6.056 6.056 0 0 1 1.462 1.3c.379.49.676 1.038.877 1.624.196.565.305 1.156.322 1.754a.212.212 0 0 1-.011.083.22.22 0 0 1-.044.071.2.2 0 0 1-.15.065h-4.24a.205.205 0 0 1-.204-.175.877.877 0 0 0-.395-.702 2.923 2.923 0 0 0-.687-.321h-.234a1.345 1.345 0 0 0-.468 0c-.19.031-.373.095-.541.19-.192.111-.345.28-.439.482a1.243 1.243 0 0 0-.087.921c.085.313.283.584.555.76.277.154.566.286.863.395l.994.351.95.307c.322.107.648.234.98.38a6.504 6.504 0 0 1 3.889 5.921 6.42 6.42 0 0 1-1.053 3.567 6.887 6.887 0 0 1-4.313 2.924c-.505.102-1.02.15-1.535.147ZM159.37 13.377a8.308 8.308 0 0 1-.643 3.275 8.537 8.537 0 0 1-1.798 2.69 8.684 8.684 0 0 1-2.676 1.842 8.197 8.197 0 0 1-3.055.702.206.206 0 0 0-.205.205v2.836a.202.202 0 0 1-.06.145.203.203 0 0 1-.144.06h-4.255a.206.206 0 0 1-.205-.205V5.044a.206.206 0 0 1 .205-.205h4.445a8.118 8.118 0 0 1 3.26.717 8.895 8.895 0 0 1 2.675 1.856 8.54 8.54 0 0 1 1.799 2.69 8.315 8.315 0 0 1 .657 3.275Zm-8.391 3.655c0 .028.005.056.016.082a.213.213 0 0 0 .12.112c.027.009.055.013.083.01a3.637 3.637 0 0 0 1.228-.335 3.855 3.855 0 0 0 1.959-2.047 3.874 3.874 0 0 0-.789-4.138 4.003 4.003 0 0 0-1.17-.833 3.657 3.657 0 0 0-1.228-.336.206.206 0 0 0-.145.044.206.206 0 0 0-.074.131v7.31ZM131.841 4.825a9.823 9.823 0 0 1 3.947.804 10.44 10.44 0 0 1 3.231 2.163 10.23 10.23 0 0 1 2.179 3.217 10.156 10.156 0 0 1 0 7.91 10.23 10.23 0 0 1-2.179 3.215 10.421 10.421 0 0 1-3.231 2.208 10.126 10.126 0 0 1-7.894 0 10.145 10.145 0 0 1-5.38-5.395 10.23 10.23 0 0 1 0-7.909 10.145 10.145 0 0 1 5.38-5.395 9.823 9.823 0 0 1 3.947-.818Zm0 15.628a5.325 5.325 0 0 0 2.135-.424 5.515 5.515 0 0 0 2.924-2.924 5.51 5.51 0 0 0 0-4.254 5.515 5.515 0 0 0-2.924-2.924 5.5 5.5 0 0 0-4.255 0 5.512 5.512 0 0 0-2.924 2.924 5.509 5.509 0 0 0 0 4.254 5.511 5.511 0 0 0 2.924 2.924 5.325 5.325 0 0 0 2.135.424h-.015ZM115.452 9.284h-4.298a.205.205 0 0 0-.205.204v15.439c0 .113.092.205.205.205h4.298a.205.205 0 0 0 .205-.205V9.488a.205.205 0 0 0-.205-.204Z"/><path fill="#fff" d="M119.312 4.825H107.28a.205.205 0 0 0-.205.204v4.298c0 .114.092.205.205.205h12.032a.204.204 0 0 0 .204-.205V5.03a.204.204 0 0 0-.204-.204Z"/></g><defs><clipPath id="a"><path fill="#fff" d="M.101 0h165.775v30H.101z"/></clipPath></defs></svg>