<svg width="136" height="24" viewBox="0 0 136 24" fill="none" xmlns="http://www.w3.org/2000/svg">
<path d="M11.5644 1.79108C11.7557 1.45176 12.2443 1.45176 12.4356 1.79108L15.1485 6.60437L15.5841 6.35886L15.1485 6.60437C15.3626 6.98413 15.7313 7.25199 16.1586 7.33821L21.5747 8.43101C21.9565 8.50805 22.1075 8.97277 21.8439 9.25953L18.1045 13.3271C17.8095 13.648 17.6686 14.0814 17.7187 14.5145L18.353 20.0032C18.3978 20.3901 18.0024 20.6773 17.6483 20.5152L12.6242 18.2158C12.2279 18.0344 11.7721 18.0344 11.3758 18.2158L6.35174 20.5152C5.99756 20.6773 5.60224 20.3901 5.64696 20.0032L6.2813 14.5145C6.33135 14.0814 6.19053 13.648 5.8955 13.3271L2.15614 9.25953C1.89253 8.97278 2.04353 8.50805 2.42534 8.43101L7.84141 7.33821C8.26873 7.25199 8.6374 6.98414 8.85145 6.60437L11.5644 1.79108Z" fill="#DA7B32" stroke="#DA7B32"/>
<path d="M39.5644 1.79108C39.7557 1.45176 40.2443 1.45176 40.4356 1.79108L43.1485 6.60437L43.5841 6.35886L43.1485 6.60437C43.3626 6.98413 43.7313 7.25199 44.1586 7.33821L49.5747 8.43101C49.9565 8.50805 50.1075 8.97277 49.8439 9.25953L46.1045 13.3271C45.8095 13.648 45.6686 14.0814 45.7187 14.5145L46.353 20.0032C46.3978 20.3901 46.0024 20.6773 45.6483 20.5152L40.6242 18.2158C40.2279 18.0344 39.7721 18.0344 39.3758 18.2158L34.3517 20.5152C33.9976 20.6773 33.6022 20.3901 33.647 20.0032L34.2813 14.5145C34.3314 14.0814 34.1905 13.648 33.8955 13.3271L30.1561 9.25953C29.8925 8.97278 30.0435 8.50805 30.4253 8.43101L35.8414 7.33821C36.2687 7.25199 36.6374 6.98414 36.8515 6.60437L39.5644 1.79108Z" fill="#DA7B32" stroke="#DA7B32"/>
<path d="M67.5644 1.79108C67.7557 1.45176 68.2443 1.45176 68.4356 1.79108L71.1485 6.60437L71.5841 6.35886L71.1485 6.60437C71.3626 6.98413 71.7313 7.25199 72.1586 7.33821L77.5747 8.43101C77.9565 8.50805 78.1075 8.97277 77.8439 9.25953L74.1045 13.3271C73.8095 13.648 73.6686 14.0814 73.7187 14.5145L74.353 20.0032C74.3978 20.3901 74.0024 20.6773 73.6483 20.5152L68.6242 18.2158C68.2279 18.0344 67.7721 18.0344 67.3758 18.2158L62.3517 20.5152C61.9976 20.6773 61.6022 20.3901 61.647 20.0032L62.2813 14.5145C62.3314 14.0814 62.1905 13.648 61.8955 13.3271L58.1561 9.25953C57.8925 8.97278 58.0435 8.50805 58.4253 8.43101L63.8414 7.33821C64.2687 7.25199 64.6374 6.98414 64.8515 6.60437L67.5644 1.79108Z" fill="#DA7B32" stroke="#DA7B32"/>
<path d="M95.5644 1.79108C95.7557 1.45176 96.2443 1.45176 96.4356 1.79108L99.1485 6.60437L99.5841 6.35886L99.1485 6.60437C99.3626 6.98413 99.7313 7.25199 100.159 7.33821L105.575 8.43101C105.956 8.50805 106.107 8.97277 105.844 9.25953L102.105 13.3271C101.809 13.648 101.669 14.0814 101.719 14.5145L102.353 20.0032C102.398 20.3901 102.002 20.6773 101.648 20.5152L96.6242 18.2158C96.2279 18.0344 95.7721 18.0344 95.3758 18.2158L90.3517 20.5152C89.9976 20.6773 89.6022 20.3901 89.647 20.0032L90.2813 14.5145C90.3314 14.0814 90.1905 13.648 89.8955 13.3271L86.1561 9.25953C85.8925 8.97278 86.0435 8.50805 86.4253 8.43101L91.8414 7.33821C92.2687 7.25199 92.6374 6.98414 92.8515 6.60437L95.5644 1.79108Z" fill="#DA7B32" stroke="#DA7B32"/>
<path d="M123.564 1.79108C123.756 1.45176 124.244 1.45176 124.436 1.79108L127.149 6.60437L127.584 6.35886L127.149 6.60437C127.363 6.98413 127.731 7.25199 128.159 7.33821L133.575 8.43101C133.956 8.50805 134.107 8.97277 133.844 9.25953L130.105 13.3271C129.809 13.648 129.669 14.0814 129.719 14.5145L130.353 20.0032C130.398 20.3901 130.002 20.6773 129.648 20.5152L124.624 18.2158C124.228 18.0344 123.772 18.0344 123.376 18.2158L118.352 20.5152C117.998 20.6773 117.602 20.3901 117.647 20.0032L118.281 14.5145C118.331 14.0814 118.191 13.648 117.895 13.3271L114.156 9.25953C113.893 8.97278 114.044 8.50805 114.425 8.43101L119.841 7.33821C120.269 7.25199 120.637 6.98414 120.851 6.60437L123.564 1.79108Z" fill="#DA7B32" stroke="#DA7B32"/>
</svg>
